<svg xmlns="http://www.w3.org/2000/svg" viewBox="0 0 119.06 119.06"><defs><style>.cls-1{fill:#009fe3;}.cls-2{fill:#1d1d1b;}</style></defs><g id="Numbers"><path class="cls-1" d="M45.54,38.86H85.07l-2.52-9.32L69.17,38.23,48,52,43,55.21a5,5,0,0,0,2.52,9.32H85.07l-5-5V85.2l5-5H45.54a5,5,0,0,0,0,10H85.07a5.07,5.07,0,0,0,5-5V59.53a5.07,5.07,0,0,0-5-5H45.54l2.52,9.31,13.38-8.68L82.66,41.38l4.94-3.2a5,5,0,0,0-2.53-9.32H45.54a5,5,0,0,0,0,10Z"/><circle class="cls-2" cx="85.07" cy="33.86" r="8.43"/><circle class="cls-2" cx="45.54" cy="33.86" r="8.43"/></g></svg>