<svg xmlns="http://www.w3.org/2000/svg" viewBox="0 0 119.06 119.06"><defs><style>.cls-1{fill:#009fe3;}.cls-2{fill:#1d1d1b;}</style></defs><g id="Numbers"><path class="cls-1" d="M76.77,29.54,63.4,38.23,42.17,52l-4.93,3.2a5,5,0,0,0,2.52,9.32H79.29l-5-5V85.2a5,5,0,0,0,10,0V59.53a5.07,5.07,0,0,0-5-5H39.76l2.52,9.31,13.38-8.68L76.88,41.38l4.94-3.2c2.19-1.43,3.3-4.5,1.79-6.84s-4.49-3.32-6.84-1.8Z"/><path class="cls-1" d="M74.29,33.86V59.53a5,5,0,0,0,10,0V33.86a5,5,0,0,0-10,0Z"/><circle class="cls-2" cx="79.29" cy="59.53" r="8.43"/><circle class="cls-2" cx="79.29" cy="33.86" r="8.43"/><circle class="cls-2" cx="39.76" cy="33.86" r="8.43"/></g></svg>