<svg xmlns="http://www.w3.org/2000/svg" viewBox="0 0 119.06 119.06"><defs><style>.cls-1{fill:#009fe3;}.cls-2{fill:#1d1d1b;}</style></defs><g id="Variante1"><path class="cls-1" d="M34.76,34.43V85.76c0,3.66,4.3,6.42,7.52,4.32L55.66,81.4,76.88,67.62l4.94-3.21a5.06,5.06,0,0,0,0-8.63L68.44,47.09,47.22,33.31l-4.94-3.2a5,5,0,0,0-6.84,1.79,5.11,5.11,0,0,0,1.8,6.84l13.37,8.69L71.84,61.21l4.93,3.2V55.78L63.4,64.46,42.17,78.24l-4.93,3.21,7.52,4.31V34.43a5,5,0,0,0-10,0Z"/><circle class="cls-2" cx="79.29" cy="60.1" r="8.43"/><circle class="cls-2" cx="79.29" cy="34.43" r="8.43"/><circle class="cls-2" cx="39.76" cy="34.43" r="8.43"/></g></svg>