<svg xmlns="http://www.w3.org/2000/svg" viewBox="0 0 119.06 119.06"><defs><style>.cls-1{fill:#009fe3;}.cls-2{fill:#1d1d1b;}</style></defs><g id="Variante1"><path class="cls-1" d="M44.76,85.2V33.86l-9.32,2.52,17.35,24.5,2.42,3.42a5.08,5.08,0,0,0,8.63,0L81.19,39.8l2.42-3.42-9.32-2.52V85.2a5,5,0,0,0,10,0V33.86A5.06,5.06,0,0,0,80.62,29,5.23,5.23,0,0,0,75,31.34L57.63,55.84l-2.42,3.41h8.63L46.5,34.75l-2.42-3.41c-1.25-1.76-3.43-3-5.65-2.3a5.14,5.14,0,0,0-3.67,4.82V85.2a5,5,0,0,0,10,0Z"/><circle class="cls-2" cx="39.76" cy="85.2" r="8.43"/><circle class="cls-2" cx="79.29" cy="33.86" r="8.43"/><circle class="cls-2" cx="39.76" cy="33.86" r="8.43"/></g></svg>