<svg xmlns="http://www.w3.org/2000/svg" viewBox="0 0 119.06 119.06"><defs><style>.cls-1{fill:#009fe3;}.cls-2{fill:#1d1d1b;}</style></defs><g id="Variante1"><path class="cls-1" d="M83.61,82.67,70.22,65.28,49,37.69l-4.89-6.35a5.53,5.53,0,0,0-3-2.3,5.12,5.12,0,0,0-3.85.5c-2,1.32-3.5,4.63-1.8,6.84L48.83,53.77l21.26,27.6L75,87.72A5.51,5.51,0,0,0,78,90a5.1,5.1,0,0,0,3.86-.51c2-1.31,3.5-4.62,1.79-6.84Z"/><path class="cls-1" d="M44.08,87.72,57.47,70.33l21.25-27.6,4.89-6.35c1.6-2.08.39-5.69-1.79-6.84-2.65-1.4-5.13-.43-6.84,1.8L61.59,48.72,40.33,76.32l-4.89,6.35c-1.6,2.08-.38,5.69,1.8,6.84,2.65,1.4,5.13.43,6.84-1.79Z"/><circle class="cls-2" cx="39.76" cy="85.2" r="8.43"/><circle class="cls-2" cx="79.29" cy="85.2" r="8.43"/><circle class="cls-2" cx="79.29" cy="33.86" r="8.43"/><circle class="cls-2" cx="39.76" cy="33.86" r="8.43"/></g></svg>