<svg xmlns="http://www.w3.org/2000/svg" viewBox="0 0 119.06 119.06"><defs><style>.cls-1{fill:#009fe3;}.cls-2{fill:#1d1d1b;}</style></defs><g id="Variante1"><path class="cls-1" d="M44.76,85.2V33.86l-7.52,4.32L50.56,47,71.9,61.18l4.87,3.23,2.52-9.31H42.9a5.06,5.06,0,0,0-4.82,3.67,5.22,5.22,0,0,0,2.3,5.64l12.24,8.45L72.26,86.41l4.51,3.1,2.52-9.31H39.76a5,5,0,0,0,0,10H79.29a5.09,5.09,0,0,0,4.83-3.67,5.24,5.24,0,0,0-2.3-5.65L69.58,72.44,49.93,58.89l-4.51-3.11L42.9,65.1H79.29a5.09,5.09,0,0,0,4.83-3.68,5.21,5.21,0,0,0-2.3-5.64L68.5,46.94,47.15,32.77l-4.87-3.23c-3.21-2.13-7.52.69-7.52,4.32V85.2a5,5,0,0,0,10,0Z"/><circle class="cls-2" cx="39.76" cy="59.53" r="8.43"/><circle class="cls-2" cx="39.76" cy="33.86" r="8.43"/></g></svg>