<svg xmlns="http://www.w3.org/2000/svg" viewBox="0 0 119.06 119.06"><defs><style>.cls-1{fill:#1d1d1b;}.cls-2{fill:#009fe3;}</style></defs><g id="Punteggiatura"><circle class="cls-1" cx="39.76" cy="85.2" r="8.43"/><circle class="cls-1" cx="79.29" cy="85.2" r="8.43"/><circle class="cls-1" cx="39.76" cy="59.53" r="8.43"/><path class="cls-2" d="M39.76,38.86H79.29l-5-5V59.53l5-5H59.53a5.07,5.07,0,0,0-5,5V72.64a5,5,0,1,0,10,0V59.53l-5,5H79.29a5.07,5.07,0,0,0,5-5V33.86a5.07,5.07,0,0,0-5-5H39.76a5,5,0,0,0,0,10Z"/><path class="cls-2" d="M59.53,90.2a5,5,0,1,0-5-5,5.06,5.06,0,0,0,5,5Z"/></g></svg>