<svg xmlns="http://www.w3.org/2000/svg" viewBox="0 0 119.06 119.06"><defs><style>.cls-1{fill:#009fe3;}.cls-2{fill:#1d1d1b;}</style></defs><g id="Numbers"><path class="cls-1" d="M39.76,38.86H79.29L75,31.34,61.59,48.72,40.33,76.32l-4.89,6.35c-1.6,2.08-.38,5.69,1.8,6.84,2.65,1.4,5.13.43,6.84-1.79L57.47,70.33l21.25-27.6,4.89-6.35c1-1.36.82-3.65,0-5a5,5,0,0,0-4.32-2.48H39.76a5,5,0,0,0,0,10Z"/><circle class="cls-2" cx="39.76" cy="59.53" r="8.43"/><circle class="cls-2" cx="79.29" cy="59.53" r="8.43"/><circle class="cls-2" cx="79.29" cy="33.86" r="8.43"/><circle class="cls-2" cx="39.76" cy="33.86" r="8.43"/></g></svg>