<svg xmlns="http://www.w3.org/2000/svg" viewBox="0 0 119.06 119.06"><defs><style>.cls-1{fill:#009fe3;}.cls-2{fill:#1d1d1b;}</style></defs><g id="Variante1"><path class="cls-1" d="M34.76,33.86V85.2a5,5,0,0,0,10,0V33.86a5,5,0,0,0-10,0Z"/><path class="cls-1" d="M75.76,30.32,54.48,52.79l-3,3.2a5.11,5.11,0,0,0,0,7.07L72.73,85.53l3,3.2a5,5,0,0,0,7.07,0,5.11,5.11,0,0,0,0-7.07L61.55,59.19l-3-3.2v7.07L79.8,40.59l3-3.2a5,5,0,0,0-7.07-7.07Z"/><path class="cls-1" d="M39.76,64.53H52.31a5,5,0,0,0,0-10H39.76a5,5,0,1,0,0,10Z"/><circle class="cls-2" cx="39.76" cy="85.2" r="8.43"/><circle class="cls-2" cx="39.76" cy="33.86" r="8.43"/></g></svg>