<svg xmlns="http://www.w3.org/2000/svg" viewBox="0 0 119.06 119.06"><defs><style>.cls-1{fill:#009fe3;}.cls-2{fill:#1d1d1b;}</style></defs><g id="Variante1"><path class="cls-1" d="M34.76,33.86V85.2A5.09,5.09,0,0,0,38.43,90a5.32,5.32,0,0,0,5.65-2.3L61.39,65.25l2.45-3.2H55.21L72.52,84.53,75,87.72c1.32,1.72,3.36,3,5.64,2.3a5.14,5.14,0,0,0,3.67-4.82V33.86a5,5,0,0,0-10,0V85.2l9.32-2.53L66.3,60.2,63.84,57a5,5,0,0,0-8.63,0L37.9,79.48l-2.46,3.19,9.32,2.53V33.86a5,5,0,0,0-10,0Z"/><circle class="cls-2" cx="79.29" cy="85.2" r="8.43"/><circle class="cls-2" cx="39.76" cy="59.53" r="8.43"/><circle class="cls-2" cx="79.29" cy="59.53" r="8.43"/><circle class="cls-2" cx="79.29" cy="33.86" r="8.43"/></g></svg>