<svg xmlns="http://www.w3.org/2000/svg" viewBox="0 0 119.06 119.06"><defs><style>.cls-1{fill:#009fe3;}.cls-2{fill:#1d1d1b;}</style></defs><g id="Numbers"><path class="cls-1" d="M39.76,38.86H79.29l-5-5V59.53l2.48-4.32L63.4,63.89,42.17,77.68l-4.93,3.2a5,5,0,0,0,2.52,9.32H79.29a5,5,0,0,0,0-10H39.76l2.52,9.31L68.54,72.46,81,64.37c.27-.17.54-.34.79-.52a5.6,5.6,0,0,0,2.49-5v-25a5.07,5.07,0,0,0-5-5H39.76a5,5,0,0,0,0,10Z"/><circle class="cls-2" cx="39.76" cy="59.53" r="8.43"/><circle class="cls-2" cx="39.76" cy="33.86" r="8.43"/></g></svg>