<svg xmlns="http://www.w3.org/2000/svg" viewBox="0 0 119.06 119.06"><defs><style>.cls-1{fill:#009fe3;}.cls-2{fill:#1d1d1b;}</style></defs><g id="Variante1"><path class="cls-1" d="M44.76,85.2V33.86l-9.32,2.52L48.83,53.77l21.26,27.6L75,87.72c1.32,1.72,3.36,3,5.64,2.3a5.14,5.14,0,0,0,3.67-4.82V33.86a5,5,0,0,0-10,0V85.2l9.32-2.53L70.22,65.28,49,37.69l-4.89-6.35c-1.33-1.72-3.37-3-5.65-2.3a5.14,5.14,0,0,0-3.67,4.82V85.2a5,5,0,0,0,10,0Z"/><circle class="cls-2" cx="39.76" cy="85.2" r="8.43"/><circle class="cls-2" cx="79.29" cy="59.53" r="8.43"/><circle class="cls-2" cx="79.29" cy="33.86" r="8.43"/><circle class="cls-2" cx="39.76" cy="33.86" r="8.43"/></g></svg>