<svg xmlns="http://www.w3.org/2000/svg" viewBox="0 0 119.06 119.06"><defs><style>.cls-1{fill:#009fe3;}.cls-2{fill:#1d1d1b;}</style></defs><g id="Variante1"><path class="cls-1" d="M44.76,85.2V62.87c0-8.69.2-17.41,0-26.09a3.68,3.68,0,0,0,0-.47L42,39.87l-2.76-.34h0s0,0,.06,0a1.45,1.45,0,0,0,.29.19c1,.74,2,1.36,3,2l12.06,8.05L68.49,59l5,3.35a26.76,26.76,0,0,0,2.54,1.7s.09.07.14.09-1.88-3.28-1.9-3.2,0,.12,0,.18c-.05.55,0,1.13,0,1.68V85.2a5,5,0,0,0,10,0V73.32c0-4.1.19-8.25,0-12.35a6.69,6.69,0,0,0-3.13-5.48l-.83-.56-4-2.66L63.09,43.43,49.52,34.37c-3-2-6.48-5.28-10.4-4a6.41,6.41,0,0,0-4.36,6.08c0,.33,0,.65,0,1V85.2a5,5,0,0,0,10,0Z"/><circle class="cls-2" cx="39.76" cy="33.86" r="8.43"/><path class="cls-1" d="M55.83,67.28H79.29a5,5,0,0,0,0-10H55.83a5,5,0,0,0,0,10Z"/></g></svg>