<svg xmlns="http://www.w3.org/2000/svg" viewBox="0 0 119.06 119.06"><defs><style>.cls-1{fill:#009fe3;}.cls-2{fill:#1d1d1b;}</style></defs><g id="Variante1"><path class="cls-1" d="M44.76,85.2V33.86l-5,5H79.29l-5-5V85.2l5-5H39.76a5,5,0,0,0,0,10H79.29a5.07,5.07,0,0,0,5-5V33.86a5.07,5.07,0,0,0-5-5H39.76a5.07,5.07,0,0,0-5,5V85.2a5,5,0,0,0,10,0Z"/><path class="cls-1" d="M83.61,82.67l-13.88-18-2-2.57a5.53,5.53,0,0,0-3-2.3,5.12,5.12,0,0,0-3.85.5c-2,1.32-3.5,4.63-1.79,6.84L73,85.15l2,2.57A5.51,5.51,0,0,0,78,90a5.1,5.1,0,0,0,3.86-.51c2-1.31,3.5-4.62,1.79-6.84Z"/><circle class="cls-2" cx="39.76" cy="85.2" r="8.43"/><circle class="cls-2" cx="39.76" cy="59.53" r="8.43"/><circle class="cls-2" cx="79.29" cy="59.53" r="8.43"/><circle class="cls-2" cx="79.29" cy="33.86" r="8.43"/><circle class="cls-2" cx="39.76" cy="33.86" r="8.43"/></g></svg>