<svg xmlns="http://www.w3.org/2000/svg" viewBox="0 0 119.06 119.06"><defs><style>.cls-1{fill:#009fe3;}.cls-2{fill:#1d1d1b;}</style></defs><g id="Numbers"><path class="cls-1" d="M39.76,64.53H79.29a5,5,0,0,0,0-10H39.76a5,5,0,1,0,0,10Z"/><path class="cls-1" d="M34.76,33.86V85.2a5.07,5.07,0,0,0,5,5H79.29a5.07,5.07,0,0,0,5-5V33.86a5.07,5.07,0,0,0-5-5H39.76a5,5,0,0,0,0,10H79.29l-5-5V85.2l5-5H39.76l5,5V33.86a5,5,0,0,0-10,0Z"/><circle class="cls-2" cx="39.76" cy="59.53" r="8.43"/><circle class="cls-2" cx="79.29" cy="59.53" r="8.43"/><circle class="cls-2" cx="39.76" cy="33.86" r="8.43"/></g></svg>