<svg xmlns="http://www.w3.org/2000/svg" viewBox="0 0 119.06 119.06"><defs><style>.cls-1{fill:#009fe3;}.cls-2{fill:#1d1d1b;}</style></defs><g id="Numbers"><path class="cls-1" d="M42.28,89.51l13.38-8.68L76.88,67.05l4.94-3.21a5,5,0,0,0-2.53-9.31H39.76l5,5V33.86l-5,5H79.29l-5-5V56.35a5,5,0,1,0,10,0V33.86a5.07,5.07,0,0,0-5-5H39.76a5.07,5.07,0,0,0-5,5V59.53a5.07,5.07,0,0,0,5,5H79.29l-2.52-9.32L63.4,63.89,42.17,77.68l-4.93,3.2c-2.19,1.42-3.31,4.5-1.8,6.84,1.41,2.19,4.5,3.32,6.84,1.79Z"/><circle class="cls-2" cx="39.76" cy="59.53" r="8.43"/><circle class="cls-2" cx="79.29" cy="33.86" r="8.43"/></g></svg>