<svg xmlns="http://www.w3.org/2000/svg" viewBox="0 0 119.06 119.06"><defs><style>.cls-1{fill:#009fe3;}.cls-2{fill:#1d1d1b;}</style></defs><g id="Variante1"><path class="cls-1" d="M44.76,85.2V33.86l-5,5H79.29l-5-5V59.53l5-5H59.53A5,5,0,0,0,55.21,57a4.9,4.9,0,0,0,0,5L72.52,84.53,75,87.72A5.51,5.51,0,0,0,78,90a5.1,5.1,0,0,0,3.86-.51c2-1.31,3.5-4.62,1.79-6.84L66.3,60.2,63.84,57l-4.31,7.53H79.29a5.07,5.07,0,0,0,5-5V33.86a5.07,5.07,0,0,0-5-5H39.76a5.07,5.07,0,0,0-5,5V85.2a5,5,0,0,0,10,0Z"/><circle class="cls-2" cx="39.76" cy="85.2" r="8.43"/><circle class="cls-2" cx="39.76" cy="59.53" r="8.43"/><circle class="cls-2" cx="79.29" cy="59.53" r="8.43"/><circle class="cls-2" cx="39.76" cy="33.86" r="8.43"/></g></svg>