<svg xmlns="http://www.w3.org/2000/svg" viewBox="0 0 119.06 119.06"><defs><style>.cls-1{fill:#009fe3;}.cls-2{fill:#1d1d1b;}</style></defs><g id="Variante1"><path class="cls-1" d="M34.76,33.86V85.2a5,5,0,0,0,10,0V33.86a5,5,0,0,0-10,0Z"/><path class="cls-1" d="M74.29,33.86V85.2a5,5,0,0,0,10,0V33.86a5,5,0,0,0-10,0Z"/><path class="cls-1" d="M76.49,54.53H43.81a5,5,0,0,0,0,10H76.49a5,5,0,0,0,0-10Z"/><circle class="cls-2" cx="39.76" cy="59.53" r="8.43"/><circle class="cls-2" cx="79.29" cy="59.53" r="8.43"/><circle class="cls-2" cx="39.76" cy="33.86" r="8.43"/></g></svg>