<svg xmlns="http://www.w3.org/2000/svg" viewBox="0 0 119.06 119.06"><defs><style>.cls-1{fill:#009fe3;}.cls-2{fill:#1d1d1b;}</style></defs><g id="Variante1"><path class="cls-1" d="M34.76,33.86V58.62a6.09,6.09,0,0,0,1,3.86l2.78,3.62,9.77,12.68,6.88,8.94a5,5,0,0,0,8.63,0L79.47,67.43,82.85,63a5.79,5.79,0,0,0,1.44-3.76c.13-4.19,0-8.4,0-12.59V33.86a5,5,0,0,0-10,0V59.53L75,57,57.67,79.48l-2.46,3.19h8.63L46.54,60.2,44.08,57l.68,2.53V33.86a5,5,0,0,0-10,0Z"/><circle class="cls-2" cx="39.76" cy="85.2" r="8.43"/><circle class="cls-2" cx="79.29" cy="85.2" r="8.43"/><circle class="cls-2" cx="39.76" cy="59.53" r="8.43"/><circle class="cls-2" cx="39.76" cy="33.86" r="8.43"/></g></svg>