<svg xmlns="http://www.w3.org/2000/svg" viewBox="0 0 119.06 119.06"><defs><style>.cls-1{fill:#009fe3;}.cls-2{fill:#1d1d1b;}</style></defs><g id="Numbers"><path class="cls-1" d="M34.76,33.86V85.2a5.07,5.07,0,0,0,5,5H79.29a5.07,5.07,0,0,0,5-5V33.86a5.07,5.07,0,0,0-5-5H39.76a5,5,0,0,0,0,10H79.29l-5-5V85.2l5-5H39.76l5,5V33.86a5,5,0,0,0-10,0Z"/><path class="cls-1" d="M35.44,36.38,48.83,53.77l21.26,27.6L75,87.72A5.51,5.51,0,0,0,78,90a5.1,5.1,0,0,0,3.86-.51c2-1.31,3.5-4.62,1.79-6.84L70.22,65.28,49,37.69l-4.89-6.35a5.53,5.53,0,0,0-3-2.3,5.12,5.12,0,0,0-3.85.5c-2,1.32-3.5,4.63-1.8,6.84Z"/><circle class="cls-2" cx="39.76" cy="85.2" r="8.43"/><circle class="cls-2" cx="79.29" cy="85.2" r="8.43"/><circle class="cls-2" cx="39.76" cy="59.53" r="8.43"/><circle class="cls-2" cx="79.29" cy="59.53" r="8.43"/><circle class="cls-2" cx="79.29" cy="33.86" r="8.43"/><circle class="cls-2" cx="39.76" cy="33.86" r="8.43"/></g></svg>